<svg width="616" height="632" viewBox="0 0 462 474" xmlns="http://www.w3.org/2000/svg" xmlns:xlink="http://www.w3.org/1999/xlink">
<g id="graph0" class="graph" transform="translate(-33.60500146863026,343.41467137774714) scale(1.8308808792534286)">
<polygon fill="white" stroke="transparent" points="-4,4 -4,-112 346,-112 346,4 -4,4"/>
<!-- p53 -->
<g id="p138" class="node">
<title>p138</title>
<g id="a_p138"><a xlink:href="/欧式几何/2023/11/14/公设1.md" xlink:title="公设1">
<polygon fill="white" stroke="white" points="54,-36 0,-36 0,0 54,0 54,-36"/>
<text text-anchor="middle" x="27" y="-13.8" font-family="Helvetica-Outline" font-size="14.00">公设1</text>
</a>
</g>
</g>
<!-- p29 -->
<g id="p143" class="node">
<title>p143</title>
<g id="a_p143"><a xlink:href="/欧式几何/2023/11/14/作正三角形.md" xlink:title="作正三角形">
<polygon fill="white" stroke="white" points="97,-108 29,-108 29,-72 97,-72 97,-108"/>
<text text-anchor="middle" x="63" y="-85.8" font-family="Helvetica-Outline" font-size="14.00">作正三角形</text>
</a>
</g>
</g>
<!-- p53&#45;&gt;p29 -->
<g id="edge1" class="edge">
<title>p138-&gt;p143</title>
<path fill="none" stroke="#00ff00" d="M35.9,-36.3C40,-44.27 44.95,-53.9 49.49,-62.74"/>
<polygon fill="#00ff00" stroke="#00ff00" points="46.52,-64.6 54.2,-71.9 52.74,-61.4 46.52,-64.6"/>
</g>
<!-- p32 -->
<g id="p139" class="node">
<title>p139</title>
<g id="a_p139"><a xlink:href="/欧式几何/2023/11/14/公设2.md" xlink:title="公设2">
<polygon fill="white" stroke="white" points="198,-36 144,-36 144,0 198,0 198,-36"/>
<text text-anchor="middle" x="171" y="-13.8" font-family="Helvetica-Outline" font-size="14.00">公设2</text>
</a>
</g>
</g>
<!-- p53&#45;&gt;p32 -->
<g id="p140" class="node">
<title>p140</title>
<g id="a_p140"><a xlink:href="/欧式几何/2023/11/14/公设3.md" xlink:title="公设3">
<polygon fill="white" stroke="white" points="126,-36 72,-36 72,0 126,0 126,-36"/>
<text text-anchor="middle" x="99" y="-13.8" font-family="Helvetica-Outline" font-size="14.00">公设3</text>
</a>
</g>
</g>
<!-- p2 -->
<g id="edge2" class="edge">
<title>p140-&gt;p143</title>
<path fill="none" stroke="#00ff00" d="M90.1,-36.3C86,-44.27 81.05,-53.9 76.51,-62.74"/>
<polygon fill="#00ff00" stroke="#00ff00" points="73.26,-61.4 71.8,-71.9 79.48,-64.6 73.26,-61.4"/>
</g>
<!-- p3 -->
<g id="p141" class="node">
<title>p141</title>
<g id="a_p141"><a xlink:href="/欧式几何/2023/11/14/公设4.md" xlink:title="公设4">
<polygon fill="white" stroke="white" points="270,-36 216,-36 216,0 270,0 270,-36"/>
<text text-anchor="middle" x="243" y="-13.8" font-family="Helvetica-Outline" font-size="14.00">公设4</text>
</a>
</g>
</g>
<!-- p2&#45;&gt;p3 -->
<g id="p142" class="node">
<title>p142</title>
<g id="a_p142"><a xlink:href="/欧式几何/2023/11/14/公设5.md" xlink:title="公设5">
<polygon fill="white" stroke="white" points="342,-36 288,-36 288,0 342,0 342,-36"/>
<text text-anchor="middle" x="315" y="-13.8" font-family="Helvetica-Outline" font-size="14.00">公设5</text>
</a>
</g>
</g>
</g>
</svg>